# xmcd
#
# Track frame offsets:
#	150
#	15207
#	28967
#	44682
#	62555
#	77402
#	92282
#	106115
#	120475
#	136300
#	152502
#	169570
#
# Disc length: 2456 seconds
#
# Revision: 1
# Processed by: cddbd v1.5.1PL0 Copyright (c) Steve Scherf et al.
# Submitted via: audiograbber 1.83.01
#
DISCID=7f09960c
DTITLE=Die Mooskirchner - Ein biﬂchen Liebe
DYEAR=1900
DGENRE=Country
TTITLE0=Gib mir noch ein biﬂchen Liebe
TTITLE1=Du bist des Liaste, was i hab
TTITLE2=Wenn wir uns wiederseh'n
TTITLE3=Oh Maria
TTITLE4=Hab ich Dir heute schon gesagt
TTITLE5=Du bist heut nicht allein
TTITLE6=Mona
TTITLE7=Du warst meine Liebe
TTITLE8=Ich liebe Dich, Cherie
TTITLE9=Wenn es wieder Sommer w‰r
TTITLE10=Schau mir noch mal in die Augen
TTITLE11=Wenn Du Sorgen hast
EXTD=
EXTT0=
EXTT1=
EXTT2=
EXTT3=
EXTT4=
EXTT5=
EXTT6=
EXTT7=
EXTT8=
EXTT9=
EXTT10=
EXTT11=
PLAYORDER=
